<svg xmlns="http://www.w3.org/2000/svg" width="800" height="500" viewBox="0 0 800 500">
  <defs>
    <linearGradient id="bg" x1="0" y1="0" x2="0" y2="1">
      <stop offset="0%" stop-color="#0D1A2A"/><stop offset="100%" stop-color="#08111F"/>
    </linearGradient>
    <linearGradient id="g1" x1="0" y1="0" x2="1" y2="1">
      <stop offset="0%" stop-color="#14C8C8" stop-opacity="0.12"/>
      <stop offset="100%" stop-color="#14C8C8" stop-opacity="0"/>
    </linearGradient>
  </defs>
  <rect width="800" height="500" fill="url(#bg)" rx="16"/>
  <circle cx="200" cy="150" r="220" fill="url(#g1)"/>
  <circle cx="650" cy="420" r="180" fill="url(#g1)"/>
  <g transform="translate(400,200)" fill="none" stroke="#14C8C8" stroke-width="2" opacity="0.35">
    <rect x="-20" y="-30" width="16" height="25" rx="2"/>
    <rect x="-8" y="-18" width="16" height="25" rx="2"/>
    <rect x="4" y="-30" width="16" height="25" rx="2"/>
    <path d="M-12-30 L-12-40 L12-40 L12-30" stroke-width="1.2"/>
    <path d="M-12-40 L-16-48" stroke-width="1"/>
    <path d="M12-40 L16-48" stroke-width="1"/>
    <line x1="0" y1="-25" x2="0" y2="-30" stroke-width="1"/>
  </g>
  <g transform="translate(400,200)" fill="none" stroke="#14C8C8" stroke-width="0.5" opacity="0.12" stroke-dasharray="3,3">
    <rect x="-35" y="-48" width="70" height="55" rx="3"/>
    <rect x="-50" y="-60" width="100" height="75" rx="4"/>
  </g>
</svg>