<svg xmlns="http://www.w3.org/2000/svg" width="800" height="500" viewBox="0 0 800 500">
  <defs>
    <linearGradient id="bg" x1="0" y1="0" x2="0" y2="1">
      <stop offset="0%" stop-color="#0D1A2A"/><stop offset="100%" stop-color="#08111F"/>
    </linearGradient>
    <linearGradient id="g1" x1="0" y1="0" x2="1" y2="1">
      <stop offset="0%" stop-color="#14C8C8" stop-opacity="0.12"/>
      <stop offset="100%" stop-color="#14C8C8" stop-opacity="0"/>
    </linearGradient>
  </defs>
  <rect width="800" height="500" fill="url(#bg)" rx="16"/>
  <circle cx="200" cy="150" r="220" fill="url(#g1)"/>
  <circle cx="650" cy="420" r="180" fill="url(#g1)"/>
  <g transform="translate(400,200)" fill="none" stroke="#14C8C8" stroke-width="2" opacity="0.35">
    <path d="M0-50 L45-20 L45 30 L-45 30 L-45-20 Z"/>
    <path d="M-20-15 L0-30 L20-15" stroke-width="1.5"/>
    <path d="M-30 10 L-10-5 L10 10 L30-5" stroke-width="1.5"/>
    <circle cx="0" cy="-35" r="3" fill="#14C8C8" opacity="0.5"/>
  </g>
  <g transform="translate(320,250)" fill="none" stroke="#14C8C8" stroke-width="1" opacity="0.15">
    <path d="M0-30 C15-30 30-15 30 0 C30 15 15 30 0 30 C-15 30-30 15-30 0 C-30-15-15-30 0-30Z"/>
    <path d="M-12 0 L-4 8 L12-8" stroke-width="2"/>
  </g>
</svg>