<svg xmlns="http://www.w3.org/2000/svg" width="800" height="500" viewBox="0 0 800 500">
  <defs>
    <linearGradient id="bg" x1="0" y1="0" x2="0" y2="1">
      <stop offset="0%" stop-color="#0D1A2A"/><stop offset="100%" stop-color="#08111F"/>
    </linearGradient>
    <linearGradient id="g1" x1="0" y1="0" x2="1" y2="1">
      <stop offset="0%" stop-color="#C9A84C" stop-opacity="0.12"/>
      <stop offset="100%" stop-color="#C9A84C" stop-opacity="0"/>
    </linearGradient>
  </defs>
  <rect width="800" height="500" fill="url(#bg)" rx="16"/>
  <circle cx="250" cy="180" r="200" fill="url(#g1)"/>
  <circle cx="600" cy="380" r="160" fill="url(#g1)"/>
  <g transform="translate(400,200)" fill="none" stroke="#C9A84C" stroke-width="2" opacity="0.35">
    <path d="M0-50 L45-20 L45 30 L-45 30 L-45-20 Z"/>
    <path d="M-20-15 L0-30 L20-15" stroke-width="1.5"/>
    <path d="M-30 10 L-10-5 L10 10 L30-5" stroke-width="1.5"/>
    <circle cx="0" cy="-35" r="3" fill="#C9A84C" opacity="0.5"/>
    <circle cx="0" cy="-35" r="8" fill="none" stroke="#C9A84C" stroke-width="0.5" opacity="0.3"/>
  </g>
  <g transform="translate(400,200)" fill="none" stroke="#C9A84C" stroke-width="0.5" opacity="0.15">
    <circle cx="0" cy="-35" r="14"/>
    <circle cx="0" cy="-35" r="20"/>
  </g>
  <g stroke="#C9A84C" stroke-width="0.5" opacity="0.08" stroke-dasharray="2,4">
    <line x1="300" y1="280" x2="350" y2="230"/>
    <line x1="500" y1="280" x2="450" y2="230"/>
  </g>
</svg>