<svg xmlns="http://www.w3.org/2000/svg" width="800" height="500" viewBox="0 0 800 500">
  <defs>
    <linearGradient id="bg" x1="0" y1="0" x2="0" y2="1">
      <stop offset="0%" stop-color="#0D1A2A"/><stop offset="100%" stop-color="#08111F"/>
    </linearGradient>
    <linearGradient id="g1" x1="0" y1="0" x2="1" y2="1">
      <stop offset="0%" stop-color="#14C8C8" stop-opacity="0.12"/>
      <stop offset="100%" stop-color="#14C8C8" stop-opacity="0"/>
    </linearGradient>
  </defs>
  <rect width="800" height="500" fill="url(#bg)" rx="16"/>
  <circle cx="250" cy="180" r="220" fill="url(#g1)"/>
  <circle cx="600" cy="400" r="180" fill="url(#g1)"/>
  <g transform="translate(400,210)" fill="none" stroke="#14C8C8" stroke-width="2" opacity="0.35">
    <ellipse cx="0" cy="-10" rx="45" ry="20"/>
    <path d="M-45-10 L-45 25 C-45 35 45 35 45 25 L45-10"/>
    <path d="M-45-10 L-45-20 C-45-30 45-30 45-20 L45-10"/>
    <line x1="0" y1="-10" x2="0" y2="-25"/>
    <line x1="-20" y1="-5" x2="20" y2="-5"/>
    <line x1="-20" y1="5" x2="20" y2="5"/>
    <line x1="-20" y1="15" x2="20" y2="15"/>
  </g>
  <g transform="translate(400,210)" fill="none" stroke="#14C8C8" stroke-width="0.5" opacity="0.12">
    <circle cx="0" cy="0" r="60"/>
    <circle cx="0" cy="0" r="80"/>
    <circle cx="0" cy="0" r="100"/>
  </g>
</svg>