<svg xmlns="http://www.w3.org/2000/svg" width="800" height="500" viewBox="0 0 800 500">
  <defs>
    <linearGradient id="bg" x1="0" y1="0" x2="0" y2="1">
      <stop offset="0%" stop-color="#0D1A2A"/><stop offset="100%" stop-color="#08111F"/>
    </linearGradient>
    <linearGradient id="g1" x1="0" y1="0" x2="1" y2="1">
      <stop offset="0%" stop-color="#C9A84C" stop-opacity="0.12"/>
      <stop offset="100%" stop-color="#C9A84C" stop-opacity="0"/>
    </linearGradient>
  </defs>
  <rect width="800" height="500" fill="url(#bg)" rx="16"/>
  <circle cx="200" cy="150" r="220" fill="url(#g1)"/>
  <circle cx="650" cy="420" r="180" fill="url(#g1)"/>
  <g transform="translate(400,210)" fill="none" stroke="#C9A84C" stroke-width="2" opacity="0.35">
    <rect x="-45" y="-55" width="90" height="100" rx="4"/>
    <rect x="-34" y="-35" width="20" height="20" rx="2"/>
    <rect x="14" y="-35" width="20" height="20" rx="2"/>
    <rect x="-34" y="-5" width="20" height="20" rx="2"/>
    <rect x="14" y="-5" width="20" height="20" rx="2"/>
    <rect x="-34" y="25" width="68" height="20" rx="2"/>
  </g>
  <g transform="translate(320,240)" fill="none" stroke="#C9A84C" stroke-width="1.2" opacity="0.2">
    <rect x="-22" y="-28" width="44" height="50" rx="2"/>
    <rect x="-16" y="-20" width="10" height="10" rx="1"/>
    <rect x="6" y="-20" width="10" height="10" rx="1"/>
  </g>
  <g transform="translate(490,230)" fill="none" stroke="#C9A84C" stroke-width="1.2" opacity="0.2">
    <rect x="-25" y="-32" width="50" height="58" rx="2"/>
    <rect x="-18" y="-22" width="12" height="12" rx="1"/>
    <rect x="6" y="-22" width="12" height="12" rx="1"/>
    <rect x="-18" y="-2" width="36" height="12" rx="1"/>
  </g>
  <g stroke="#C9A84C" stroke-width="0.5" opacity="0.12" stroke-dasharray="3,4">
    <line x1="320" y1="240" x2="400" y2="210"/>
    <line x1="400" y1="210" x2="490" y2="230"/>
  </g>
</svg>